<svg width="328" height="123" viewBox="0 0 328 123" fill="none" xmlns="http://www.w3.org/2000/svg">
<path d="M110.971 0H16.5803C7.42401 0 0 7.39267 0 16.5103V106.49C0 115.607 7.42401 123 16.5803 123H110.971C120.128 123 127.552 115.607 127.552 106.49V16.5103C127.587 7.39267 120.128 0 110.971 0ZM112.032 99.6251C112.032 103.99 108.461 107.511 104.113 107.511H38.4635C35.5999 107.511 32.9838 105.997 31.5697 103.497C30.1556 101.033 30.191 97.9705 31.6758 95.5415L47.0895 69.8784H23.474C20.7165 69.8784 18.1358 68.435 16.7217 66.1116C15.2723 63.753 15.1662 60.6903 16.4742 58.5429L39.9129 19.3618C42.1755 15.6302 47.0541 14.3981 50.8015 16.6511C54.5488 18.9041 55.7862 23.7622 53.5236 27.4937L37.5797 54.1073H61.0537C63.9172 54.1073 66.5333 55.6211 67.9474 58.1205C69.3615 60.5847 69.3261 63.6474 67.8413 66.0764L52.4277 91.7396H96.1587V23.3749C96.1587 19.0097 99.6939 15.4894 104.078 15.4894C108.461 15.4894 111.997 19.0449 111.997 23.3749V99.6251H112.032ZM198.115 68.2238C196.807 68.2238 195.57 68.7871 194.721 69.808C193.837 70.8288 193.484 72.1666 193.696 73.5395C193.979 75.3349 195.428 76.7782 197.196 77.1302C197.479 77.2006 197.797 77.2006 198.08 77.2006C199.176 77.2006 200.201 76.8486 201.049 76.1445C202.075 75.2997 202.676 74.0675 202.676 72.765C202.711 70.1952 200.696 68.2238 198.115 68.2238ZM194.615 107.546H201.756V80.2633H194.615V107.546ZM180.05 48.0172H158.273V37.9491H176.55V31.7181H158.273V21.65H179.449V15.4894H150.99V54.2129H180.05V48.0172ZM171.424 99.7307L158.945 68.8223H151.026L167.429 107.37L167.5 107.546H175.348L191.61 69.2447L191.787 68.8223H183.868L171.424 99.7307ZM211.69 54.2129V39.5684C211.69 34.7808 210.63 31.4013 208.403 29.2187C206.423 27.2825 203.559 26.332 199.671 26.332H199.176C195.075 26.4024 192.706 28.3386 191.327 30.2748V26.9305H184.398V54.2129H191.54V41.2934C191.54 37.8434 192.282 35.4496 193.767 34.0063C194.933 32.8446 196.56 32.2813 198.716 32.2813H198.858C202.817 32.3517 204.514 34.5343 204.514 39.5684V54.2129H211.69ZM250.578 79.6649C246.124 79.6649 242.412 81.073 239.866 83.7484C237.286 86.4591 235.978 90.437 236.19 94.9782C236.543 102.124 242.871 108.039 250.26 108.144H250.578C262.138 108.144 263.8 99.1322 263.8 99.0618L263.871 98.7098H256.553L256.482 98.921C256.482 98.9562 255.527 102.371 250.649 102.371C246.583 102.371 243.826 100.048 243.402 96.2808H264.189L264.224 95.9991C264.684 90.8595 263.552 86.5999 260.936 83.7484C258.462 81.073 254.891 79.6649 250.578 79.6649ZM243.402 91.0003C243.861 88.36 245.982 85.4382 250.614 85.4382C252.664 85.4382 254.538 86.1423 255.74 87.4096C256.694 88.3953 257.189 89.6274 257.224 91.0003H243.402ZM289.077 30.0283C287.097 27.7401 284.34 26.4728 281.123 26.3672H280.486C276.315 26.3672 272.815 27.6345 270.269 30.0987C267.618 32.6334 266.169 36.4001 266.169 40.6597C266.169 44.9193 267.618 48.686 270.305 51.1855C273.027 53.7553 276.88 54.9874 281.441 54.7058C284.41 54.565 286.991 53.3329 288.936 51.1503V57.3812C288.936 58.2261 288.229 58.9302 287.38 58.9302H268.608L268.537 65.0555H288.405C292.648 65.0555 296.077 61.6056 296.077 57.4164V26.9305H289.112V30.0283H289.077ZM281.37 48.9677C276.704 48.9677 273.451 45.5529 273.451 40.6597C273.451 35.4848 276.562 32.1405 281.37 32.1405C286.178 32.1405 289.042 35.2032 289.042 40.5541C289.077 45.6938 286.037 48.9677 281.37 48.9677ZM230.074 99.9067V68.8223H222.933V98.9914C222.933 103.709 226.786 107.546 231.523 107.546H233.962V101.385H231.559C230.745 101.385 230.074 100.716 230.074 99.9067ZM215.155 99.9067V68.8223H208.014V98.9914C208.014 103.709 211.867 107.546 216.604 107.546H219.044V101.385H216.64C215.827 101.385 215.155 100.716 215.155 99.9067ZM254.502 30.2748V26.9305H247.538V54.2129H254.679V43.2295C254.75 34.816 255.916 33.091 261.573 33.091H264.861V26.9305H261.396C258.462 26.9305 256.128 28.057 254.502 30.2748ZM320.47 26.9305L313.293 45.2009L306.47 27.1065L306.4 26.8953H298.834L309.97 53.4737L308.485 57.2404C307.778 58.6485 307.708 58.8598 306.011 58.8598H301.132V65.0203H306.011C312.374 65.0203 313.399 62.4857 315.521 57.4868L327.823 27.3177L328 26.8953H320.47V26.9305ZM229.791 54.8114C241.351 54.8114 243.013 45.7994 243.013 45.729L243.083 45.3769H235.765L235.695 45.5882C235.659 45.729 234.705 49.0381 229.862 49.0381C225.796 49.0381 223.039 46.7147 222.614 42.9479H243.402L243.437 42.6663C243.897 37.5266 242.765 33.267 240.149 30.4156C237.71 27.7401 234.139 26.332 229.791 26.332C225.443 26.332 221.624 27.7401 219.079 30.4156C216.498 33.1262 215.19 37.1042 215.402 41.6454C215.756 48.7916 222.084 54.7058 229.473 54.8114H229.791ZM229.862 32.1053C231.912 32.1053 233.786 32.8094 234.988 34.0767C235.942 35.0624 236.437 36.2945 236.473 37.6674H222.65C223.109 35.0272 225.23 32.1053 229.862 32.1053Z" fill="#35CA71"/>
</svg>
